<?xml version="1.0" encoding="UTF-8" standalone="no"?>
<!DOCTYPE svg PUBLIC "-//W3C//DTD SVG 1.1//EN"
 "http://www.w3.org/Graphics/SVG/1.1/DTD/svg11.dtd">
<!-- Generated by graphviz version 3.0.0 (20220226.1711)
 -->
<!-- Title: DTree Pages: 1 -->
<svg width="728pt" height="305pt"
 viewBox="0.00 0.00 728.29 305.00" xmlns="http://www.w3.org/2000/svg" xmlns:xlink="http://www.w3.org/1999/xlink">
<g id="graph0" class="graph" transform="scale(1 1) rotate(0) translate(4 301)">
<title>DTree</title>
<polygon fill="white" stroke="transparent" points="-4,4 -4,-301 724.29,-301 724.29,4 -4,4"/>
<!-- v0 -->
<g id="node1" class="node">
<title>v0</title>
<ellipse fill="none" stroke="black" cx="428.65" cy="-279" rx="38.19" ry="18"/>
<text text-anchor="middle" x="428.65" y="-275.3" font-family="Times,serif" font-size="14.00">x0 &gt; x1</text>
</g>
<!-- v1 -->
<g id="node2" class="node">
<title>v1</title>
<ellipse fill="none" stroke="black" cx="367.65" cy="-192" rx="38.19" ry="18"/>
<text text-anchor="middle" x="367.65" y="-188.3" font-family="Times,serif" font-size="14.00">x0 &gt; x2</text>
</g>
<!-- v0&#45;&gt;v1 -->
<g id="edge1" class="edge">
<title>v0&#45;&gt;v1</title>
<path fill="none" stroke="black" d="M416.88,-261.61C407.94,-249.15 395.48,-231.79 385.34,-217.65"/>
<polygon fill="black" stroke="black" points="388.04,-215.42 379.37,-209.34 382.36,-219.5 388.04,-215.42"/>
<text text-anchor="middle" x="406.15" y="-231.8" font-family="Times,serif" font-size="14.00">0</text>
</g>
<!-- v8 -->
<g id="node9" class="node">
<title>v8</title>
<ellipse fill="none" stroke="black" cx="544.65" cy="-192" rx="38.19" ry="18"/>
<text text-anchor="middle" x="544.65" y="-188.3" font-family="Times,serif" font-size="14.00">x1 &gt; x2</text>
</g>
<!-- v0&#45;&gt;v8 -->
<g id="edge8" class="edge">
<title>v0&#45;&gt;v8</title>
<path fill="none" stroke="black" d="M448.59,-263.39C467.26,-249.7 495.36,-229.12 516.35,-213.73"/>
<polygon fill="black" stroke="black" points="518.58,-216.44 524.58,-207.71 514.44,-210.79 518.58,-216.44"/>
<text text-anchor="middle" x="497.15" y="-231.8" font-family="Times,serif" font-size="14.00">1</text>
</g>
<!-- v2 -->
<g id="node3" class="node">
<title>v2</title>
<ellipse fill="none" stroke="black" cx="175.65" cy="-105" rx="38.19" ry="18"/>
<text text-anchor="middle" x="175.65" y="-101.3" font-family="Times,serif" font-size="14.00">x1 &gt; x2</text>
</g>
<!-- v1&#45;&gt;v2 -->
<g id="edge2" class="edge">
<title>v1&#45;&gt;v2</title>
<path fill="none" stroke="black" d="M340.54,-179C306.95,-164.13 249.58,-138.73 212.14,-122.16"/>
<polygon fill="black" stroke="black" points="213.17,-118.78 202.61,-117.94 210.34,-125.19 213.17,-118.78"/>
<text text-anchor="middle" x="287.15" y="-144.8" font-family="Times,serif" font-size="14.00">0</text>
</g>
<!-- v5 -->
<g id="node6" class="node">
<title>v5</title>
<ellipse fill="none" stroke="black" cx="367.65" cy="-105" rx="38.19" ry="18"/>
<text text-anchor="middle" x="367.65" y="-101.3" font-family="Times,serif" font-size="14.00">x1 &gt; x0</text>
</g>
<!-- v1&#45;&gt;v5 -->
<g id="edge5" class="edge">
<title>v1&#45;&gt;v5</title>
<path fill="none" stroke="black" d="M367.65,-173.8C367.65,-162.16 367.65,-146.55 367.65,-133.24"/>
<polygon fill="black" stroke="black" points="371.15,-133.18 367.65,-123.18 364.15,-133.18 371.15,-133.18"/>
<text text-anchor="middle" x="371.15" y="-144.8" font-family="Times,serif" font-size="14.00">1</text>
</g>
<!-- v3 -->
<g id="node4" class="node">
<title>v3</title>
<ellipse fill="none" stroke="black" cx="52.65" cy="-18" rx="52.79" ry="18"/>
<text text-anchor="middle" x="52.65" y="-14.3" font-family="Times,serif" font-size="14.00">[x0, x1, x2]</text>
</g>
<!-- v2&#45;&gt;v3 -->
<g id="edge3" class="edge">
<title>v2&#45;&gt;v3</title>
<path fill="none" stroke="black" d="M155.06,-89.77C135.5,-76.25 105.83,-55.75 83.45,-40.29"/>
<polygon fill="black" stroke="black" points="85.18,-37.23 74.97,-34.43 81.2,-42.99 85.18,-37.23"/>
<text text-anchor="middle" x="125.15" y="-57.8" font-family="Times,serif" font-size="14.00">0</text>
</g>
<!-- v4 -->
<g id="node5" class="node">
<title>v4</title>
<ellipse fill="none" stroke="black" cx="175.65" cy="-18" rx="52.79" ry="18"/>
<text text-anchor="middle" x="175.65" y="-14.3" font-family="Times,serif" font-size="14.00">[x0, x2, x1]</text>
</g>
<!-- v2&#45;&gt;v4 -->
<g id="edge4" class="edge">
<title>v2&#45;&gt;v4</title>
<path fill="none" stroke="black" d="M175.65,-86.8C175.65,-75.16 175.65,-59.55 175.65,-46.24"/>
<polygon fill="black" stroke="black" points="179.15,-46.18 175.65,-36.18 172.15,-46.18 179.15,-46.18"/>
<text text-anchor="middle" x="179.15" y="-57.8" font-family="Times,serif" font-size="14.00">1</text>
</g>
<!-- v6 -->
<g id="node7" class="node">
<title>v6</title>
<ellipse fill="none" stroke="black" cx="298.65" cy="-18" rx="52.79" ry="18"/>
<text text-anchor="middle" x="298.65" y="-14.3" font-family="Times,serif" font-size="14.00">[x2, x1, x0]</text>
</g>
<!-- v5&#45;&gt;v6 -->
<g id="edge6" class="edge">
<title>v5&#45;&gt;v6</title>
<path fill="none" stroke="black" d="M354.67,-88.01C344.49,-75.47 330.14,-57.8 318.51,-43.48"/>
<polygon fill="black" stroke="black" points="321.06,-41.05 312.04,-35.5 315.62,-45.47 321.06,-41.05"/>
<text text-anchor="middle" x="341.15" y="-57.8" font-family="Times,serif" font-size="14.00">0</text>
</g>
<!-- v7 -->
<g id="node8" class="node">
<title>v7</title>
<ellipse fill="none" stroke="black" cx="421.65" cy="-18" rx="52.79" ry="18"/>
<text text-anchor="middle" x="421.65" y="-14.3" font-family="Times,serif" font-size="14.00">[x2, x0, x1]</text>
</g>
<!-- v5&#45;&gt;v7 -->
<g id="edge7" class="edge">
<title>v5&#45;&gt;v7</title>
<path fill="none" stroke="black" d="M378.06,-87.61C385.8,-75.42 396.52,-58.56 405.38,-44.6"/>
<polygon fill="black" stroke="black" points="408.49,-46.24 410.9,-35.92 402.58,-42.48 408.49,-46.24"/>
<text text-anchor="middle" x="402.15" y="-57.8" font-family="Times,serif" font-size="14.00">1</text>
</g>
<!-- v9 -->
<g id="node10" class="node">
<title>v9</title>
<ellipse fill="none" stroke="black" cx="544.65" cy="-105" rx="38.19" ry="18"/>
<text text-anchor="middle" x="544.65" y="-101.3" font-family="Times,serif" font-size="14.00">x0 &gt; x2</text>
</g>
<!-- v8&#45;&gt;v9 -->
<g id="edge9" class="edge">
<title>v8&#45;&gt;v9</title>
<path fill="none" stroke="black" d="M544.65,-173.8C544.65,-162.16 544.65,-146.55 544.65,-133.24"/>
<polygon fill="black" stroke="black" points="548.15,-133.18 544.65,-123.18 541.15,-133.18 548.15,-133.18"/>
<text text-anchor="middle" x="548.15" y="-144.8" font-family="Times,serif" font-size="14.00">0</text>
</g>
<!-- v12 -->
<g id="node13" class="node">
<title>v12</title>
<ellipse fill="none" stroke="black" cx="653.65" cy="-105" rx="52.79" ry="18"/>
<text text-anchor="middle" x="653.65" y="-101.3" font-family="Times,serif" font-size="14.00">[x2, x1, x0]</text>
</g>
<!-- v8&#45;&gt;v12 -->
<g id="edge12" class="edge">
<title>v8&#45;&gt;v12</title>
<path fill="none" stroke="black" d="M563.63,-176.19C580.71,-162.88 606.03,-143.13 625.47,-127.97"/>
<polygon fill="black" stroke="black" points="627.67,-130.7 633.4,-121.79 623.36,-125.18 627.67,-130.7"/>
<text text-anchor="middle" x="610.15" y="-144.8" font-family="Times,serif" font-size="14.00">1</text>
</g>
<!-- v10 -->
<g id="node11" class="node">
<title>v10</title>
<ellipse fill="none" stroke="black" cx="544.65" cy="-18" rx="52.79" ry="18"/>
<text text-anchor="middle" x="544.65" y="-14.3" font-family="Times,serif" font-size="14.00">[x1, x0, x2]</text>
</g>
<!-- v9&#45;&gt;v10 -->
<g id="edge10" class="edge">
<title>v9&#45;&gt;v10</title>
<path fill="none" stroke="black" d="M544.65,-86.8C544.65,-75.16 544.65,-59.55 544.65,-46.24"/>
<polygon fill="black" stroke="black" points="548.15,-46.18 544.65,-36.18 541.15,-46.18 548.15,-46.18"/>
<text text-anchor="middle" x="548.15" y="-57.8" font-family="Times,serif" font-size="14.00">0</text>
</g>
<!-- v11 -->
<g id="node12" class="node">
<title>v11</title>
<ellipse fill="none" stroke="black" cx="667.65" cy="-18" rx="52.79" ry="18"/>
<text text-anchor="middle" x="667.65" y="-14.3" font-family="Times,serif" font-size="14.00">[x1, x2, x0]</text>
</g>
<!-- v9&#45;&gt;v11 -->
<g id="edge11" class="edge">
<title>v9&#45;&gt;v11</title>
<path fill="none" stroke="black" d="M565.23,-89.77C584.79,-76.25 614.46,-55.75 636.84,-40.29"/>
<polygon fill="black" stroke="black" points="639.09,-42.99 645.32,-34.43 635.11,-37.23 639.09,-42.99"/>
<text text-anchor="middle" x="617.15" y="-57.8" font-family="Times,serif" font-size="14.00">1</text>
</g>
</g>
</svg>
